<svg width="533" height="86" viewBox="0 0 533 86" fill="none" xmlns="http://www.w3.org/2000/svg">
<path d="M3.71054 2.3C1.31054 7.6 0.110539 21.6 0.0105387 48C-0.0894613 74.2 0.510539 83 2.31054 83C3.01054 83 3.91054 76.7 4.91054 65.5C5.31054 61.4 6.71054 56.5 7.71054 55.8C8.31054 55.5 9.61054 56.2 10.6105 57.5C12.7105 60.2 19.1105 63 25.0105 63.7C30.2105 64.3 37.0105 62.5 41.2105 59.3C43.0105 57.9 44.7105 57 45.0105 57.3C45.3105 57.5 45.6105 61.5 45.7105 66.1C46.0105 76.8 48.4105 82.4 52.9105 82.8C55.6105 83.1 56.3105 82.6 58.2105 79.2C59.4105 77 60.4105 73.9 60.5105 72.4C60.6105 69.6 60.6105 69.6 61.6105 73C62.1105 74.9 63.7105 78 65.0105 79.7C70.2105 86.6 75.6105 82.7 82.6105 67C85.1105 61.4 87.4105 57.2 87.7105 57.8C88.1105 58.3 88.6105 64.2 89.0105 70.8C89.4105 77.5 90.1105 83 90.5105 83C91.3105 83 92.7105 73.7 92.8105 67.3C92.9105 65.1 93.2105 63.4 93.5105 63.5C93.8105 63.7 94.6105 60 95.3105 55.2C95.9105 50.4 96.9105 45.8 97.4105 45C97.9105 44.2 98.4105 43.7 98.4105 44C98.4105 44.3 99.1105 48.1 99.9105 52.5C100.711 56.9 101.711 65.6 102.011 71.7C102.711 83.3 103.911 86.3 104.811 78.7C107.311 57.9 109.011 48 110.311 48C110.711 48 111.611 52.6 112.311 58.2C113.111 63.9 114.511 71.2 115.611 74.5C120.111 88.4 125.911 85.9 135.011 66.2C138.111 59.4 139.411 58.4 139.411 63.1C139.411 64.7 140.111 69.2 141.011 73C142.111 78.1 143.211 80.5 145.111 82C148.411 84.6 148.711 84.6 152.811 80.9C156.311 77.9 160.611 70 164.511 59.3C166.611 53.8 168.011 52.7 169.111 55.7C170.411 59.2 176.311 67.5 179.611 70.7C191.111 81.7 210.111 84.8 224.111 77.8L228.511 75.6L234.211 78.4C241.911 82.2 252.711 83 260.211 80.4C269.111 77.2 277.711 68.9 283.111 58.3L285.411 53.7V58.1C285.511 64.6 286.311 76 287.011 80C287.711 84.1 288.811 82.6 289.811 76.2C290.311 72.8 290.211 72 289.211 72.6C288.211 73.2 288.111 73 289.211 71.9C289.811 71.2 290.411 69.5 290.411 68.2C290.411 64.7 295.211 39.6 297.611 30.5C298.811 26.1 301.011 19.9 302.611 16.7C308.011 5.7 314.411 7 314.411 19.1C314.411 33.1 309.411 44 301.911 46C298.511 47 299.611 49.4 303.611 50.1C308.311 50.8 312.011 53.3 313.911 56.9C319.511 67.9 313.911 82 303.911 82C298.911 82 296.611 79.9 295.711 74.6C295.111 70.5 293.411 69.7 293.411 73.4C293.411 79.8 298.611 86 303.811 86C310.011 85.9 322.311 77.9 323.911 72.9C324.311 71.8 324.911 71.2 325.311 71.4C326.111 71.9 332.411 60 332.411 58.1C332.411 57.5 332.811 57 333.311 57C334.511 57 335.411 62.1 335.411 68.5C335.411 75.1 336.511 83 337.411 83C337.711 83 338.611 77.9 339.211 71.7C340.411 59.4 343.111 46 344.411 46C344.911 46 345.511 46.8 345.811 47.7C346.611 50.2 351.411 55.4 354.211 56.9C355.911 57.8 357.311 57.8 360.411 56.9C362.611 56.2 364.611 55.9 364.911 56.1C365.111 56.4 364.811 58.2 364.211 60.1C362.511 65.8 364.811 77.2 368.511 81.1C371.211 84 371.611 84.1 373.711 82.8C376.711 80.7 380.011 74.1 379.511 71C379.311 70.2 379.511 69.8 379.911 70.1C380.211 70.5 380.711 72.3 380.911 74.1C381.511 78.9 384.511 82.4 388.211 82.8C390.711 83.1 391.711 82.5 394.111 79.3C395.611 77.2 397.111 75.3 397.411 75C398.011 74.4 402.011 65.4 402.811 62.7C404.011 58.9 405.211 61.4 405.611 68.7C406.111 76.7 408.111 82.3 410.911 83.3C413.211 84.2 416.211 80.3 418.011 74C420.811 64.3 421.111 64 421.911 68.5C422.311 70.7 423.811 74.9 425.111 77.7C427.211 82.2 428.011 83 430.311 83C435.011 83 440.011 76.1 446.111 61.2C447.511 57.7 448.011 57.2 448.511 58.7C448.911 59.7 449.311 62.3 449.311 64.4C449.511 72.6 454.111 84 457.311 84C460.611 84 468.111 73.6 471.911 63.8C472.811 61.2 474.011 59.2 474.411 59.5C474.811 59.7 475.411 63 475.711 66.7C476.011 70.4 476.711 74.6 477.211 76C477.711 77.4 478.211 78.9 478.211 79.4C478.311 80.8 483.611 83.9 485.011 83.3C485.811 83 486.111 82.4 485.811 81.9C485.511 81.4 486.011 81.3 486.811 81.6C488.511 82.2 493.411 75.5 496.011 69.1C498.011 64.1 498.711 64.6 500.311 72.1C501.711 78.6 503.611 81.8 507.211 83.1C510.511 84.4 513.611 81.6 515.411 75.7C516.011 73.4 517.011 70.5 517.511 69.2C518.011 67.9 518.411 65 518.411 62.7C518.411 57.5 519.111 56.5 523.011 56.4C526.311 56.2 532.411 51.7 532.411 49.3C532.411 47.5 531.711 47.6 527.911 50.5C526.111 52 523.311 53.2 521.811 53.3C519.411 53.5 518.911 53 517.511 48.9C514.711 41 511.511 39 508.111 42.8C504.311 47 507.611 55.5 513.211 56.2C515.911 56.5 515.911 56.6 515.711 63.4C515.511 72.3 513.111 78.8 509.711 79.6C503.811 81.1 499.911 69.7 502.011 57.5C504.411 43.9 503.411 43.7 498.611 57C494.911 67.6 490.411 75.9 487.011 78.4C480.811 83.1 477.411 75.8 477.111 57.4C477.011 52.5 476.511 48.4 476.011 48.2C474.911 47.8 472.311 55 473.011 56.2C473.311 56.6 473.111 57 472.611 57C472.011 57 471.311 58.1 471.011 59.4C470.011 63.3 464.711 74.3 462.611 76.7C461.511 77.9 459.611 79.2 458.211 79.5C454.211 80.5 452.311 74.7 450.911 57.4C450.411 51.7 450.811 48.5 453.011 40.4C455.111 32.4 455.711 28.1 455.811 17.9C455.911 8.7 455.511 4.6 454.511 2.7C453.711 1.2 452.811 -1.2815e-06 452.411 -1.2815e-06C450.411 -1.2815e-06 449.111 10.5 448.411 30.5L447.711 52.5L443.911 61.5C439.011 73.1 435.711 78.1 431.711 79.6C428.611 80.9 428.611 80.9 426.511 76.5C424.611 72.4 422.511 56.5 422.411 45.7C422.411 40.4 420.611 44 420.011 50.7C418.611 64.5 415.011 78.9 412.511 80.4C412.011 80.7 410.811 80 409.811 78.9C408.111 77.1 407.911 74.9 407.711 62.1C407.611 54.1 407.211 47.5 406.811 47.5C406.511 47.5 405.311 50.2 404.311 53.5C401.511 62.3 394.311 76 391.311 78.3C385.911 82.2 382.911 78.4 381.711 66.2C381.111 59.7 379.811 57.2 379.011 61.2C378.811 62.5 378.111 66.4 377.411 70C376.211 76.8 374.311 80 371.411 80C368.511 80 367.311 77.5 366.611 70.3C365.311 57.9 368.511 44.3 372.711 44.7C373.911 44.7 374.311 44.3 374.011 43.4C373.711 42.6 373.711 42 373.911 42C374.511 42 378.411 51.1 378.411 52.6C378.411 53.4 378.911 54 379.511 54C381.111 54 379.711 47.1 377.511 44C374.611 40 372.111 40.3 368.311 45.2C359.511 56.4 355.211 56.8 348.811 47C346.711 43.7 344.611 41 344.311 41C342.611 41 341.211 44.4 341.211 48.2C341.311 50.7 341.011 51.9 340.511 51.1C340.011 50.3 339.411 51.8 338.911 55.2C338.411 59.3 338.011 60.1 337.411 58.5C336.911 57.4 336.511 54.6 336.511 52.3C336.411 46.4 334.911 46.2 333.111 51.8C330.811 58.7 327.811 65.1 327.211 64.4C326.811 64.1 326.311 64.9 325.911 66.2C324.711 70.1 318.311 77.3 317.111 76.1C316.411 75.4 316.411 74.3 317.411 72.6C320.311 67 316.511 52.9 311.311 50.3C310.011 49.6 309.411 49 309.911 49C310.511 49 310.111 48.5 309.111 47.9C307.511 46.9 307.411 46.6 308.711 45.2C317.611 35 319.111 7.4 310.811 6.2C308.311 5.8 303.811 9.2 301.911 13.1C298.411 19.7 293.411 37.5 291.311 50.5C289.211 63.2 288.911 64.1 288.111 60.5C287.111 55.5 287.711 48.3 289.911 40.2C290.811 36.7 291.311 33.2 291.011 32.4C290.711 31.6 290.811 31.1 291.311 31.4C292.511 32.2 294.411 18.6 294.411 9.6C294.411 4.2 294.011 1.9 292.911 0.999999C291.811 0.0999987 291.011 -1.2815e-06 290.311 0.699999C288.511 2.5 286.611 17 285.811 34C285.011 51.8 284.811 52.8 277.611 63.2C273.711 68.8 269.611 72.3 263.011 75.7C256.211 79.1 244.411 79.3 237.211 76C234.511 74.9 232.411 73.6 232.411 73.1C232.411 72.7 233.611 71.3 235.011 69.9C240.211 65.1 246.411 51.6 246.411 45.5C246.311 42 244.411 39 242.011 39C240.011 39 235.011 44.2 232.211 49.2C231.011 51.3 229.711 53 229.311 53C228.911 53 227.511 50.6 226.111 47.7C221.811 38.2 217.911 36.4 214.911 42.6C211.911 48.9 214.411 58.2 221.511 67.7C223.611 70.6 225.411 73.2 225.411 73.4C225.411 74.9 217.111 77.2 210.411 77.7C192.911 79 177.911 69.8 170.111 53.1C167.611 47.8 166.911 47 166.311 48.6C165.911 49.6 164.611 53.2 163.311 56.5C155.111 78.5 148.611 85 144.111 75.8C142.311 72.2 142.311 71.9 144.311 64.7C147.011 55.2 147.111 45.1 144.511 42.1L142.611 40L141.011 43.4C140.111 45.3 139.411 47.5 139.411 48.3C139.411 50.1 133.411 65.1 130.011 71.9C128.611 74.6 126.211 77.8 124.611 78.9C121.811 80.8 121.611 80.8 120.211 79.2C117.411 75.8 115.511 69.9 114.911 63C113.811 51.1 112.711 43.4 111.711 41.7C110.611 39.8 108.511 43.6 106.911 50.3C106.011 54.3 105.011 58.6 104.711 60C104.211 62.1 104.011 61.8 103.311 58C101.711 48.9 100.011 43 98.9105 42C96.9105 40.3 94.7105 44.8 93.3105 53.3C92.6105 57.5 91.7105 61 91.3105 61C91.0105 61 90.4105 58.2 90.1105 54.9C89.8105 51.5 89.2105 48.4 88.7105 47.9C88.2105 47.4 86.8105 50 85.5105 54.2C81.0105 68.1 74.0105 80 70.2105 80C66.3105 80 64.2105 75.4 62.8105 63.7C62.2105 58.4 60.4105 57.3 60.4105 62.2C60.4105 64 59.8105 68 59.1105 71.1C56.8105 80.7 53.5105 83 49.9105 77.5C46.0105 71.7 47.8105 49.7 52.4105 45.5C55.0105 43.1 58.1105 45.1 59.4105 50C60.0105 52.2 60.9105 54 61.5105 54C62.1105 54 62.3105 53.1 61.9105 52.1C61.6105 51 61.1105 49.3 60.9105 48.1C60.3105 44.7 58.5105 42.2 56.2105 41.4C53.9105 40.7 53.5105 41.1 44.9105 51.7C42.7105 54.5 40.3105 56.5 39.6105 56.2C38.8105 55.9 38.6105 56.3 39.1105 57.6C39.5105 58.8 39.4105 59.1 38.6105 58.6C38.0105 58.2 35.6105 58.5 33.4105 59.1C31.2105 59.8 29.1105 60 28.8105 59.7C28.4105 59.4 29.2105 57.1 30.4105 54.5C36.6105 41.8 37.1105 24.1 31.8105 11.8C29.8105 7.4 25.5105 5.2 22.0105 6.8C19.0105 8.2 14.2105 15.3 12.5105 21C11.8105 23.5 10.6105 27.1 9.91054 29C9.21054 30.9 7.71054 37.9 6.51054 44.5C2.81054 64.2 2.61054 64.6 2.51054 54.5C2.41054 48 3.11054 42.7 4.91054 35.5C8.91054 19.5 9.31054 -1.2815e-06 5.61054 -1.2815e-06C5.11054 -1.2815e-06 4.21054 1.1 3.71054 2.3ZM30.9105 15.7C34.6105 25.5 34.4105 40.9 30.5105 49.4C27.1105 56.5 25.9105 57.5 20.6105 57.3C14.6105 57.1 11.4105 56.7 11.9105 56.2C12.1105 56 11.1105 54.8 9.61054 53.5L6.91054 51.2L9.31054 40.9C13.4105 22.7 17.9105 11.5 21.7105 10.1C25.6105 8.6 29.0105 10.7 30.9105 15.7Z" fill="#733C3F"/>
</svg>
